<svg width="1600" height="900" viewBox="0 0 1600 900" fill="none" xmlns="http://www.w3.org/2000/svg">
  <!-- Background -->
  <rect width="1600" height="900" fill="#F9FAFB"/>
  
  <!-- Header -->
  <rect width="1600" height="80" fill="#FFFFFF"/>
  <rect x="40" y="20" width="120" height="40" rx="8" fill="#6366F1"/>
  <rect x="200" y="30" width="200" height="20" rx="4" fill="#E5E7EB"/>
  <rect x="450" y="30" width="150" height="20" rx="4" fill="#E5E7EB"/>
  <rect x="650" y="30" width="150" height="20" rx="4" fill="#E5E7EB"/>
  <circle cx="1500" cy="40" r="20" fill="#E5E7EB"/>
  
  <!-- Sidebar -->
  <rect x="0" y="80" width="240" height="820" fill="#FFFFFF"/>
  <rect x="20" y="120" width="200" height="12" rx="6" fill="#6366F1" opacity="0.2"/>
  <rect x="20" y="150" width="180" height="12" rx="6" fill="#E5E7EB"/>
  <rect x="20" y="180" width="180" height="12" rx="6" fill="#E5E7EB"/>
  <rect x="20" y="210" width="180" height="12" rx="6" fill="#E5E7EB"/>
  <rect x="20" y="250" width="200" height="12" rx="6" fill="#E5E7EB"/>
  <rect x="20" y="280" width="160" height="12" rx="6" fill="#E5E7EB"/>
  <rect x="20" y="310" width="160" height="12" rx="6" fill="#E5E7EB"/>
  
  <!-- Main Content Area -->
  <!-- Stats Cards -->
  <rect x="280" y="120" width="280" height="140" rx="12" fill="#FFFFFF" stroke="#E5E7EB" stroke-width="1"/>
  <rect x="300" y="140" width="80" height="12" rx="6" fill="#E5E7EB"/>
  <rect x="300" y="170" width="120" height="24" rx="6" fill="#6366F1"/>
  <rect x="300" y="210" width="200" height="8" rx="4" fill="#E5E7EB"/>
  
  <rect x="600" y="120" width="280" height="140" rx="12" fill="#FFFFFF" stroke="#E5E7EB" stroke-width="1"/>
  <rect x="620" y="140" width="80" height="12" rx="6" fill="#E5E7EB"/>
  <rect x="620" y="170" width="120" height="24" rx="6" fill="#8B5CF6"/>
  <rect x="620" y="210" width="200" height="8" rx="4" fill="#E5E7EB"/>
  
  <rect x="920" y="120" width="280" height="140" rx="12" fill="#FFFFFF" stroke="#E5E7EB" stroke-width="1"/>
  <rect x="940" y="140" width="80" height="12" rx="6" fill="#E5E7EB"/>
  <rect x="940" y="170" width="120" height="24" rx="6" fill="#10B981"/>
  <rect x="940" y="210" width="200" height="8" rx="4" fill="#E5E7EB"/>
  
  <rect x="1240" y="120" width="280" height="140" rx="12" fill="#FFFFFF" stroke="#E5E7EB" stroke-width="1"/>
  <rect x="1260" y="140" width="80" height="12" rx="6" fill="#E5E7EB"/>
  <rect x="1260" y="170" width="120" height="24" rx="6" fill="#F59E0B"/>
  <rect x="1260" y="210" width="200" height="8" rx="4" fill="#E5E7EB"/>
  
  <!-- Chart Area -->
  <rect x="280" y="300" width="1240" height="300" rx="12" fill="#FFFFFF" stroke="#E5E7EB" stroke-width="1"/>
  <rect x="300" y="320" width="200" height="16" rx="8" fill="#E5E7EB"/>
  
  <!-- Chart Bars -->
  <rect x="320" y="380" width="60" height="180" rx="4" fill="#6366F1" opacity="0.8"/>
  <rect x="400" y="420" width="60" height="140" rx="4" fill="#6366F1" opacity="0.8"/>
  <rect x="480" y="360" width="60" height="200" rx="4" fill="#6366F1" opacity="0.8"/>
  <rect x="560" y="400" width="60" height="160" rx="4" fill="#6366F1" opacity="0.8"/>
  <rect x="640" y="340" width="60" height="220" rx="4" fill="#6366F1" opacity="0.8"/>
  <rect x="720" y="380" width="60" height="180" rx="4" fill="#6366F1" opacity="0.8"/>
  <rect x="800" y="440" width="60" height="120" rx="4" fill="#6366F1" opacity="0.8"/>
  <rect x="880" y="400" width="60" height="160" rx="4" fill="#6366F1" opacity="0.8"/>
  <rect x="960" y="360" width="60" height="200" rx="4" fill="#6366F1" opacity="0.8"/>
  <rect x="1040" y="420" width="60" height="140" rx="4" fill="#6366F1" opacity="0.8"/>
  <rect x="1120" y="380" width="60" height="180" rx="4" fill="#6366F1" opacity="0.8"/>
  <rect x="1200" y="400" width="60" height="160" rx="4" fill="#6366F1" opacity="0.8"/>
  
  <!-- Table -->
  <rect x="280" y="640" width="1240" height="260" rx="12" fill="#FFFFFF" stroke="#E5E7EB" stroke-width="1"/>
  <rect x="300" y="660" width="200" height="16" rx="8" fill="#E5E7EB"/>
  
  <!-- Table Rows -->
  <rect x="300" y="700" width="1200" height="1" fill="#E5E7EB"/>
  <rect x="300" y="720" width="200" height="12" rx="6" fill="#E5E7EB"/>
  <rect x="520" y="720" width="150" height="12" rx="6" fill="#E5E7EB"/>
  <rect x="690" y="720" width="100" height="12" rx="6" fill="#10B981" opacity="0.2"/>
  <rect x="810" y="720" width="80" height="12" rx="6" fill="#E5E7EB"/>
  
  <rect x="300" y="750" width="1200" height="1" fill="#E5E7EB"/>
  <rect x="300" y="770" width="200" height="12" rx="6" fill="#E5E7EB"/>
  <rect x="520" y="770" width="150" height="12" rx="6" fill="#E5E7EB"/>
  <rect x="690" y="770" width="100" height="12" rx="6" fill="#10B981" opacity="0.2"/>
  <rect x="810" y="770" width="80" height="12" rx="6" fill="#E5E7EB"/>
  
  <rect x="300" y="800" width="1200" height="1" fill="#E5E7EB"/>
  <rect x="300" y="820" width="200" height="12" rx="6" fill="#E5E7EB"/>
  <rect x="520" y="820" width="150" height="12" rx="6" fill="#E5E7EB"/>
  <rect x="690" y="820" width="100" height="12" rx="6" fill="#10B981" opacity="0.2"/>
  <rect x="810" y="820" width="80" height="12" rx="6" fill="#E5E7EB"/>
  
  <rect x="300" y="850" width="1200" height="1" fill="#E5E7EB"/>
  <rect x="300" y="870" width="200" height="12" rx="6" fill="#E5E7EB"/>
  <rect x="520" y="870" width="150" height="12" rx="6" fill="#E5E7EB"/>
  <rect x="690" y="870" width="100" height="12" rx="6" fill="#10B981" opacity="0.2"/>
  <rect x="810" y="870" width="80" height="12" rx="6" fill="#E5E7EB"/>
</svg>

